<svg width="38" height="38" viewBox="0 0 38 38" fill="none" xmlns="http://www.w3.org/2000/svg">
<path d="M35.625 0C36.9387 0 38 1.05943 38 2.36579C38 3.67216 36.9387 4.73159 35.625 4.73159V33.1211C36.9387 33.1211 38 34.1783 38 35.4869C38 36.7955 36.9387 37.8527 35.625 37.8527H22.5625V33.1211H15.4375V37.8527H2.375C1.06355 37.8527 0 36.7955 0 35.4869C0 34.1783 1.06355 33.1211 2.375 33.1211V4.73159C1.06355 4.73159 0 3.67216 0 2.36579C0 1.05943 1.06355 0 2.375 0H35.625ZM8.3125 7.09738C7.65938 7.09738 7.125 7.62969 7.125 8.28028V10.6461C7.125 11.2967 7.65938 11.829 8.3125 11.829H10.6875C11.3406 11.829 11.875 11.2967 11.875 10.6461V8.28028C11.875 7.62969 11.3406 7.09738 10.6875 7.09738H8.3125ZM16.625 10.6461C16.625 11.2967 17.1594 11.829 17.8125 11.829H20.1875C20.8406 11.829 21.375 11.2967 21.375 10.6461V8.28028C21.375 7.62969 20.8406 7.09738 20.1875 7.09738H17.8125C17.1594 7.09738 16.625 7.62969 16.625 8.28028V10.6461ZM27.3125 7.09738C26.6594 7.09738 26.125 7.62969 26.125 8.28028V10.6461C26.125 11.2967 26.6594 11.829 27.3125 11.829H29.6875C30.3406 11.829 30.875 11.2967 30.875 10.6461V8.28028C30.875 7.62969 30.3406 7.09738 29.6875 7.09738H27.3125ZM7.125 17.7435C7.125 18.3941 7.65938 18.9264 8.3125 18.9264H10.6875C11.3406 18.9264 11.875 18.3941 11.875 17.7435V15.3777C11.875 14.7271 11.3406 14.1948 10.6875 14.1948H8.3125C7.65938 14.1948 7.125 14.7271 7.125 15.3777V17.7435ZM17.8125 14.1948C17.1594 14.1948 16.625 14.7271 16.625 15.3777V17.7435C16.625 18.3941 17.1594 18.9264 17.8125 18.9264H20.1875C20.8406 18.9264 21.375 18.3941 21.375 17.7435V15.3777C21.375 14.7271 20.8406 14.1948 20.1875 14.1948H17.8125ZM26.125 17.7435C26.125 18.3941 26.6594 18.9264 27.3125 18.9264H29.6875C30.3406 18.9264 30.875 18.3941 30.875 17.7435V15.3777C30.875 14.7271 30.3406 14.1948 29.6875 14.1948H27.3125C26.6594 14.1948 26.125 14.7271 26.125 15.3777V17.7435ZM19 21.2922C15.675 21.2922 12.877 23.5618 12.0309 26.63C11.8527 27.5837 12.6691 28.3895 13.6562 28.3895H24.3438C25.3309 28.3895 26.1473 27.5837 25.9023 26.63C25.123 23.5618 22.325 21.2922 19 21.2922Z" fill="#FFE248"/>
</svg>
